<svg width="250" height="250" viewBox="0 0 250 250" fill="none" xmlns="http://www.w3.org/2000/svg">
<path d="M250 125C250 194.036 194.036 250 125 250C55.9644 250 0 194.036 0 125C0 55.9644 55.9644 0 125 0C194.036 0 250 55.9644 250 125ZM12.5 125C12.5 187.132 62.868 237.5 125 237.5C187.132 237.5 237.5 187.132 237.5 125C237.5 62.868 187.132 12.5 125 12.5C62.868 12.5 12.5 62.868 12.5 125Z" fill="#FFE351"/>
<path d="M51.8732 168H41.0087L72.4324 82.4205H83.1298L114.554 168H103.689L78.1154 95.9594H77.4468L51.8732 168ZM55.8848 134.571H99.6774V143.764H55.8848V134.571Z" fill="#FFE351"/>
<path d="M193.402 103.815C192.901 99.581 190.867 96.2937 187.301 93.9537C183.735 91.6136 179.362 90.4436 174.18 90.4436C170.391 90.4436 167.076 91.0564 164.235 92.2822C161.421 93.5079 159.22 95.1933 157.632 97.3384C156.072 99.4835 155.292 101.921 155.292 104.651C155.292 106.935 155.836 108.899 156.922 110.543C158.036 112.159 159.457 113.51 161.184 114.596C162.911 115.655 164.722 116.533 166.617 117.229C168.511 117.898 170.252 118.441 171.84 118.859L180.532 121.199C182.76 121.784 185.24 122.592 187.97 123.622C190.728 124.653 193.36 126.06 195.867 127.843C198.402 129.598 200.492 131.854 202.135 134.612C203.779 137.37 204.601 140.755 204.601 144.767C204.601 149.391 203.389 153.57 200.965 157.303C198.57 161.036 195.059 164.002 190.435 166.203C185.839 168.404 180.253 169.504 173.679 169.504C167.55 169.504 162.243 168.515 157.758 166.537C153.3 164.56 149.79 161.802 147.227 158.264C144.692 154.726 143.258 150.617 142.923 145.937H153.621C153.899 149.168 154.986 151.842 156.88 153.96C158.802 156.049 161.226 157.609 164.151 158.64C167.104 159.643 170.28 160.144 173.679 160.144C177.634 160.144 181.186 159.503 184.334 158.222C187.482 156.913 189.975 155.102 191.814 152.79C193.653 150.45 194.572 147.719 194.572 144.599C194.572 141.758 193.778 139.446 192.19 137.663C190.602 135.88 188.513 134.431 185.922 133.317C183.331 132.203 180.532 131.228 177.523 130.392L166.993 127.383C160.307 125.461 155.014 122.717 151.114 119.151C147.214 115.585 145.263 110.919 145.263 105.153C145.263 100.361 146.559 96.1823 149.15 92.6165C151.768 89.0228 155.278 86.237 159.68 84.2591C164.109 82.2533 169.054 81.2505 174.514 81.2505C180.03 81.2505 184.933 82.2394 189.223 84.2173C193.513 86.1674 196.912 88.8417 199.419 92.2404C201.954 95.6391 203.292 99.4974 203.431 103.815H193.402Z" fill="#FFE351"/>
</svg>
